<?xml version="1.0" encoding="UTF-8" standalone="no"?>
<!-- Created with Inkscape (http://www.inkscape.org/) -->

<svg
   xmlns:dc="http://purl.org/dc/elements/1.1/"
   xmlns:cc="http://creativecommons.org/ns#"
   xmlns:rdf="http://www.w3.org/1999/02/22-rdf-syntax-ns#"
   xmlns:svg="http://www.w3.org/2000/svg"
   xmlns="http://www.w3.org/2000/svg"
   xmlns:sodipodi="http://sodipodi.sourceforge.net/DTD/sodipodi-0.dtd"
   xmlns:inkscape="http://www.inkscape.org/namespaces/inkscape"
   width="212.59842"
   height="53.149605"
   id="svg4112"
   version="1.1"
   inkscape:version="0.91 r13725"
   sodipodi:docname="SPSE-Jecna_Logo1_Cernobile.svg"
   inkscape:export-filename="/srv/spsejecna/src/document_root/ci/SPSE-Jecna_Logo1_Cernobile.png"
   inkscape:export-xdpi="211.66667"
   inkscape:export-ydpi="211.66667">
  <defs
     id="defs4114" />
  <sodipodi:namedview
     id="base"
     pagecolor="#ffffff"
     bordercolor="#666666"
     borderopacity="1.0"
     inkscape:pageopacity="0.0"
     inkscape:pageshadow="2"
     inkscape:zoom="5.6"
     inkscape:cx="50.391296"
     inkscape:cy="16.093756"
     inkscape:document-units="px"
     inkscape:current-layer="layer1"
     showgrid="false"
     fit-margin-top="2"
     fit-margin-left="2"
     fit-margin-bottom="2"
     fit-margin-right="2"
     inkscape:window-width="1551"
     inkscape:window-height="876"
     inkscape:window-x="49"
     inkscape:window-y="24"
     inkscape:window-maximized="1"
     showguides="true"
     inkscape:guide-bbox="true"
     units="mm">
    <sodipodi:guide
       orientation="0,1"
       position="204.05081,107.07617"
       id="guide3078" />
    <sodipodi:guide
       orientation="0,1"
       position="213.14219,2.0203051"
       id="guide3080" />
  </sodipodi:namedview>
  <metadata
     id="metadata4117">
    <rdf:RDF>
      <cc:Work
         rdf:about="">
        <dc:format>image/svg+xml</dc:format>
        <dc:type
           rdf:resource="http://purl.org/dc/dcmitype/StillImage" />
        <dc:title />
      </cc:Work>
    </rdf:RDF>
  </metadata>
  <g
     inkscape:label="Layer 1"
     inkscape:groupmode="layer"
     id="layer1"
     transform="translate(-157.58596,-1586.0709)">
    <g
       style="font-size:30.42789077999999847px;font-style:normal;font-weight:bold;line-height:125%;letter-spacing:0px;word-spacing:0px;fill:#ffffff;fill-opacity:1;stroke:none;font-family:Sans;-inkscape-font-specification:Sans Bold"
       id="text3036"
       transform="matrix(0.61416223,0,0,0.61416223,115.97746,1155.8958)">
      <path
         d="m 168.20552,768.28389 c -2e-5,2.85262 -0.66364,5.03665 -1.99089,6.5521 -1.31736,1.51545 -3.22901,2.27318 -5.73495,2.27318 -1.11925,0 -2.15432,-0.19315 -3.10519,-0.57944 l 0,-4.50178 c 0.82211,0.62401 1.74327,0.93601 2.76347,0.93601 2.18898,0 3.28348,-1.6244 3.28348,-4.87322 l 0,-12.65847 4.78408,0 0,12.85162"
         style="font-variant:normal;font-stretch:normal;fill:#ffffff;font-family:Segoe UI;-inkscape-font-specification:Segoe UI Bold"
         id="path3928"
         inkscape:connector-curvature="0" />
      <path
         d="m 185.64807,776.73773 -12.77734,0 0,-21.30546 12.28704,0 0,3.90748 -7.48811,0 0,4.7395 6.96811,0 0,3.89263 -6.96811,0 0,4.87322 7.97841,0 0,3.89263"
         style="font-variant:normal;font-stretch:normal;fill:#ffffff;font-family:Segoe UI;-inkscape-font-specification:Segoe UI Bold"
         id="path3930"
         inkscape:connector-curvature="0" />
      <path
         d="m 204.36835,775.98001 c -1.55509,0.75277 -3.58559,1.12916 -6.09152,1.12916 -3.26863,0 -5.83895,-0.96078 -7.71097,-2.88233 -1.87204,-1.92155 -2.80805,-4.48197 -2.80805,-7.68126 0,-3.40728 1.04992,-6.17075 3.14976,-8.29041 2.10974,-2.11964 4.8435,-3.17946 8.20127,-3.17948 2.08002,2e-5 3.83319,0.2625 5.25951,0.78744 l 0,4.62064 c -1.42632,-0.8518 -3.05073,-1.27772 -4.87322,-1.27773 -2.0008,10e-6 -3.6153,0.62898 -4.8435,1.88688 -1.22821,1.25794 -1.84232,2.96158 -1.84231,5.11094 -1e-5,2.06023 0.57943,3.70444 1.73831,4.93264 1.15887,1.21831 2.71889,1.82746 4.68007,1.82746 1.87201,0 3.58556,-0.45562 5.14065,-1.36688 l 0,4.38293 m -0.43086,-27.35242 -3.53606,4.82865 -3.68462,0 -3.49149,-4.82865 3.04576,0 2.3029,2.79319 2.31775,-2.79319 3.04576,0"
         style="font-variant:normal;font-stretch:normal;fill:#ffffff;font-family:Segoe UI;-inkscape-font-specification:Segoe UI Bold"
         id="path3932"
         inkscape:connector-curvature="0" />
      <path
         d="m 227.27841,776.73773 -4.8435,0 -8.7807,-13.38649 c -0.51507,-0.78247 -0.87164,-1.37181 -1.06973,-1.76802 l -0.0594,0 c 0.0792,0.75278 0.11885,1.90175 0.11886,3.44691 l 0,11.7076 -4.5315,0 0,-21.30546 5.17036,0 8.45385,12.97048 c 0.38627,0.5844 0.74285,1.16383 1.06973,1.73831 l 0.0594,0 c -0.0793,-0.49524 -0.11888,-1.47087 -0.11886,-2.9269 l 0,-11.78189 4.53149,0 0,21.30546"
         style="font-variant:normal;font-stretch:normal;fill:#ffffff;font-family:Segoe UI;-inkscape-font-specification:Segoe UI Bold"
         id="path3934"
         inkscape:connector-curvature="0" />
      <path
         d="m 250.91649,776.73773 -5.2298,0 -1.51545,-4.7395 -7.57726,0 -1.50059,4.7395 -5.20008,0 7.75555,-21.30546 5.69037,0 7.57726,21.30546 m -7.84469,-8.42413 -2.28804,-7.16125 c -0.16839,-0.53485 -0.28725,-1.17371 -0.35658,-1.9166 l -0.11886,0 c -0.0495,0.62403 -0.17334,1.24308 -0.37143,1.85717 l -2.31775,7.22068 5.45266,0 m 2.06517,-19.65629 -4.65036,4.79893 -3.38748,0 3.86292,-4.79893 4.17492,0"
         style="font-variant:normal;font-stretch:normal;fill:#ffffff;font-family:Segoe UI;-inkscape-font-specification:Segoe UI Bold"
         id="path3936"
         inkscape:connector-curvature="0" />
    </g>
    <g
       style="font-size:41.88397216999999983px;font-style:normal;font-weight:bold;line-height:125%;letter-spacing:0px;word-spacing:0px;fill:#ffffff;fill-opacity:1;stroke:none;font-family:Sans;-inkscape-font-specification:Sans Bold"
       id="text3040"
       transform="matrix(0.61416223,0,0,0.61416223,115.97746,1155.8958)">
      <path
         d="m 161.0527,740.58075 0,-6.54437 c 2.34506,1.99059 4.92872,2.98588 7.75098,2.98587 1.34977,10e-6 2.39959,-0.27268 3.14948,-0.81805 0.74986,-0.55899 1.1248,-1.28159 1.12482,-2.16782 -2e-5,-0.7635 -0.3136,-1.47929 -0.94076,-2.14737 -0.62718,-0.68169 -2.12693,-1.58154 -4.49925,-2.69955 -4.47199,-2.11327 -6.70798,-4.97643 -6.70798,-8.58949 0,-2.63136 0.96802,-4.73782 2.90406,-6.31941 1.94967,-1.59516 4.54697,-2.39275 7.79189,-2.39278 2.86315,3e-5 5.23548,0.37496 7.11701,1.12481 l 0,6.1149 c -1.96333,-1.36339 -4.21296,-2.04509 -6.74889,-2.04512 -1.26798,3e-5 -2.27008,0.27271 -3.00632,0.81805 -0.73625,0.54539 -1.10437,1.26118 -1.10436,2.14737 -10e-6,0.8726 0.28631,1.61566 0.85895,2.22918 0.58626,0.61355 1.81333,1.36342 3.68121,2.24962 2.89041,1.37706 4.88099,2.74729 5.97174,4.11069 1.09071,1.36342 1.63607,2.97224 1.63609,4.82647 -2e-5,2.69956 -0.97486,4.83329 -2.92452,6.40121 -1.93605,1.56792 -4.75831,2.35188 -8.46678,2.35189 -3.04041,-10e-6 -5.56953,-0.54537 -7.58737,-1.6361"
         style="font-variant:normal;font-stretch:normal;fill:#ffffff;font-family:Segoe UI;-inkscape-font-specification:Segoe UI Bold"
         id="path3919"
         inkscape:connector-curvature="0" />
      <path
         d="m 191.34086,731.60269 0,10.10288 -6.60572,0 0,-29.32696 10.34828,0 c 7.38967,2e-5 11.08451,3.11541 11.08453,9.34617 -2e-5,2.94499 -1.06348,5.33095 -3.19038,7.15791 -2.11331,1.81335 -4.94238,2.72001 -8.48723,2.72 l -3.14948,0 m 0,-14.1522 0,9.14167 2.5973,0 c 3.51758,2e-5 5.27638,-1.54064 5.2764,-4.62196 -2e-5,-3.01312 -1.75882,-4.51968 -5.2764,-4.51971 l -2.5973,0"
         style="font-variant:normal;font-stretch:normal;fill:#ffffff;font-family:Segoe UI;-inkscape-font-specification:Segoe UI Bold"
         id="path3921"
         inkscape:connector-curvature="0" />
      <path
         d="m 209.31743,740.58075 0,-6.54437 c 2.34506,1.99059 4.92872,2.98588 7.75099,2.98587 1.34976,10e-6 2.39959,-0.27268 3.14947,-0.81805 0.74987,-0.55899 1.1248,-1.28159 1.12482,-2.16782 -2e-5,-0.7635 -0.3136,-1.47929 -0.94075,-2.14737 -0.62719,-0.68169 -2.12694,-1.58154 -4.49926,-2.69955 -4.47199,-2.11327 -6.70798,-4.97643 -6.70798,-8.58949 0,-2.63136 0.96802,-4.73782 2.90407,-6.31941 1.94967,-1.59516 4.54696,-2.39275 7.79189,-2.39278 2.86314,3e-5 5.23547,0.37496 7.117,1.12481 l 0,6.1149 c -1.96333,-1.36339 -4.21295,-2.04509 -6.74888,-2.04512 -1.26799,3e-5 -2.27009,0.27271 -3.00632,0.81805 -0.73625,0.54539 -1.10437,1.26118 -1.10437,2.14737 0,0.8726 0.28631,1.61566 0.85895,2.22918 0.58626,0.61355 1.81333,1.36342 3.68121,2.24962 2.89042,1.37706 4.88099,2.74729 5.97174,4.11069 1.09071,1.36342 1.63607,2.97224 1.63609,4.82647 -2e-5,2.69956 -0.97486,4.83329 -2.92451,6.40121 -1.93606,1.56792 -4.75832,2.35188 -8.46678,2.35189 -3.04041,-10e-6 -5.56954,-0.54537 -7.58738,-1.6361 m 16.56544,-36.93479 -4.86738,6.64663 -5.07189,0 -4.80602,-6.64663 4.19249,0 3.16993,3.84482 3.19038,-3.84482 4.19249,0"
         style="font-variant:normal;font-stretch:normal;fill:#ffffff;font-family:Segoe UI;-inkscape-font-specification:Segoe UI Bold"
         id="path3923"
         inkscape:connector-curvature="0" />
      <path
         d="m 250.58787,741.70557 -17.588,0 0,-29.32696 16.91311,0 0,5.37865 -10.30738,0 0,6.52392 9.59159,0 0,5.3582 -9.59159,0 0,6.70798 10.98227,0 0,5.35821"
         style="font-variant:normal;font-stretch:normal;fill:#ffffff;font-family:Segoe UI;-inkscape-font-specification:Segoe UI Bold"
         id="path3925"
         inkscape:connector-curvature="0" />
    </g>
    <g
       style="font-size:14.21010112999999997px;font-style:normal;font-weight:bold;line-height:125%;letter-spacing:0px;word-spacing:0px;fill:#ffffff;fill-opacity:1;stroke:none;font-family:Sans;-inkscape-font-specification:Sans Bold"
       id="text3044"
       transform="matrix(0.61416223,0,0,0.61416223,115.97746,1155.8958)">
      <path
         d="m 263.16123,722.61087 0,-2.22032 c 0.79562,0.67535 1.67219,1.01302 2.62971,1.01302 0.45793,0 0.81411,-0.0925 1.06853,-0.27754 0.25441,-0.18965 0.38161,-0.43481 0.38162,-0.73548 -10e-6,-0.25904 -0.1064,-0.50189 -0.31917,-0.72855 -0.21279,-0.23128 -0.72161,-0.53658 -1.52648,-0.91589 -1.51723,-0.71697 -2.27584,-1.68836 -2.27584,-2.91418 0,-0.89275 0.32843,-1.60741 0.98527,-2.144 0.66147,-0.5412 1.54267,-0.8118 2.64358,-0.81181 0.97139,10e-6 1.77626,0.12722 2.41461,0.38162 l 0,2.07462 c -0.66611,-0.46256 -1.42934,-0.69384 -2.28971,-0.69385 -0.4302,10e-6 -0.77018,0.0925 -1.01997,0.27754 -0.24979,0.18503 -0.37468,0.42788 -0.37468,0.72854 0,0.29605 0.0971,0.54815 0.29142,0.7563 0.1989,0.20817 0.61521,0.46258 1.24893,0.76324 0.98064,0.4672 1.65599,0.93208 2.02605,1.39464 0.37005,0.46258 0.55508,1.00841 0.55509,1.6375 -10e-6,0.91588 -0.33075,1.6398 -0.99221,2.17176 -0.65686,0.53195 -1.61437,0.79793 -2.87255,0.79793 -1.03153,0 -1.8896,-0.18503 -2.5742,-0.55509"
         style="font-variant:normal;font-stretch:normal;fill:#ffffff;font-family:Segoe UI;-inkscape-font-specification:Segoe UI Bold"
         id="path3842"
         inkscape:connector-curvature="0" />
      <path
         d="m 278.18314,714.86748 -2.83785,0 0,8.12501 -2.24809,0 0,-8.12501 -2.82398,0 0,-1.82483 7.90992,0 0,1.82483"
         style="font-variant:normal;font-stretch:normal;fill:#ffffff;font-family:Segoe UI;-inkscape-font-specification:Segoe UI Bold"
         id="path3844"
         inkscape:connector-curvature="0" />
      <path
         d="m 287.16853,722.99249 -2.57419,0 -1.00609,-2.56031 c -0.32842,-0.83262 -0.7748,-1.24893 -1.33913,-1.24894 l -0.4857,0 0,3.80925 -2.24114,0 0,-9.94984 3.55252,0 c 2.4146,10e-6 3.62191,0.90201 3.62191,2.70602 0,0.68924 -0.19891,1.27207 -0.59671,1.74851 -0.39319,0.47645 -0.94365,0.80719 -1.65137,0.99221 l 0,0.0278 c 0.58283,0.18504 1.05696,0.69617 1.4224,1.53342 l 1.2975,2.94193 m -5.40511,-8.27072 0,2.76847 0.9714,0 c 0.48106,1e-5 0.86731,-0.13876 1.15873,-0.41631 0.29604,-0.28216 0.44406,-0.6314 0.44407,-1.04772 -1e-5,-0.86962 -0.5204,-1.30443 -1.56117,-1.30444 l -1.01303,0 m 3.53865,-4.85697 -1.65137,2.25502 -1.72075,0 -1.63056,-2.25502 1.4224,0 1.07547,1.30444 1.08241,-1.30444 1.4224,0"
         style="font-variant:normal;font-stretch:normal;fill:#ffffff;font-family:Segoe UI;-inkscape-font-specification:Segoe UI Bold"
         id="path3846"
         inkscape:connector-curvature="0" />
      <path
         d="m 294.53725,722.99249 -5.96713,0 0,-9.94984 5.73816,0 0,1.82483 -3.49702,0 0,2.21339 3.25417,0 0,1.81789 -3.25417,0 0,2.27584 3.72599,0 0,1.81789"
         style="font-variant:normal;font-stretch:normal;fill:#ffffff;font-family:Segoe UI;-inkscape-font-specification:Segoe UI Bold"
         id="path3848"
         inkscape:connector-curvature="0" />
      <path
         d="m 296.14699,722.99249 0,-9.94984 3.52477,0 c 3.53401,10e-6 5.30102,1.61668 5.30103,4.85003 -10e-6,1.5496 -0.48339,2.78697 -1.45015,3.71211 -0.96215,0.92513 -2.24578,1.3877 -3.85088,1.3877 l -3.52477,0 m 2.24114,-8.12501 0,6.30712 1.11016,0 c 0.97139,0 1.73232,-0.29142 2.28278,-0.87426 0.55507,-0.58283 0.83261,-1.37613 0.83262,-2.37991 -1e-5,-0.94826 -0.27523,-1.69299 -0.82568,-2.23421 -0.54584,-0.54582 -1.3137,-0.81873 -2.30359,-0.81874 l -1.09629,0"
         style="font-variant:normal;font-stretch:normal;fill:#ffffff;font-family:Segoe UI;-inkscape-font-specification:Segoe UI Bold"
         id="path3850"
         inkscape:connector-curvature="0" />
      <path
         d="m 315.58874,722.99249 -2.26196,0 -4.10067,-6.25161 c -0.24054,-0.36542 -0.40706,-0.64065 -0.49957,-0.82568 l -0.0278,0 c 0.037,0.35155 0.0555,0.88813 0.0555,1.60973 l 0,5.46756 -2.11625,0 0,-9.94984 2.41461,0 3.94802,6.05733 c 0.18039,0.27292 0.34692,0.54352 0.49957,0.81181 l 0.0278,0 c -0.037,-0.23128 -0.0555,-0.68691 -0.0555,-1.36689 l 0,-5.50225 2.11625,0 0,9.94984"
         style="font-variant:normal;font-stretch:normal;fill:#ffffff;font-family:Segoe UI;-inkscape-font-specification:Segoe UI Bold"
         id="path3852"
         inkscape:connector-curvature="0" />
      <path
         d="m 320.11959,722.99249 -2.24114,0 0,-9.94984 2.24114,0 0,9.94984 m 1.13792,-13.11381 -2.17176,2.24114 -1.58198,0 1.80402,-2.24114 1.94972,0"
         style="font-variant:normal;font-stretch:normal;fill:#ffffff;font-family:Segoe UI;-inkscape-font-specification:Segoe UI Bold"
         id="path3854"
         inkscape:connector-curvature="0" />
      <path
         d="m 265.80481,737.32749 0,3.42763 -2.24114,0 0,-9.94985 3.51089,0 c 2.50712,1e-5 3.76068,1.05698 3.76068,3.17091 0,0.99915 -0.36081,1.80865 -1.08241,2.42848 -0.71698,0.61522 -1.67681,0.92283 -2.87948,0.92283 l -1.06854,0 m 0,-4.80146 0,3.10152 0.8812,0 c 1.19342,0 1.79013,-0.5227 1.79014,-1.56811 -1e-5,-1.02227 -0.59672,-1.5334 -1.79014,-1.53341 l -0.8812,0"
         style="font-variant:normal;font-stretch:normal;fill:#ffffff;font-family:Segoe UI;-inkscape-font-specification:Segoe UI Bold"
         id="path3856"
         inkscape:connector-curvature="0" />
      <path
         d="m 279.95247,740.75512 -2.5742,0 -1.00608,-2.56032 c -0.32843,-0.83262 -0.77481,-1.24893 -1.33914,-1.24893 l -0.48569,0 0,3.80925 -2.24115,0 0,-9.94985 3.55253,0 c 2.4146,1e-5 3.6219,0.90202 3.62191,2.70603 -1e-5,0.68923 -0.19892,1.27207 -0.59672,1.74851 -0.39319,0.47645 -0.94364,0.80718 -1.65137,0.99221 l 0,0.0277 c 0.58283,0.18503 1.05697,0.69617 1.4224,1.53341 l 1.29751,2.94194 m -5.40511,-8.27072 0,2.76847 0.97139,0 c 0.48107,0 0.86731,-0.13877 1.15873,-0.41631 0.29604,-0.28216 0.44406,-0.6314 0.44407,-1.04772 -1e-5,-0.86962 -0.5204,-1.30444 -1.56117,-1.30444 l -1.01302,0"
         style="font-variant:normal;font-stretch:normal;fill:#ffffff;font-family:Segoe UI;-inkscape-font-specification:Segoe UI Bold"
         id="path3858"
         inkscape:connector-curvature="0" />
      <path
         d="m 289.46519,736.44629 c -1e-5,2.9882 -1.39234,4.48229 -4.177,4.48229 -2.7014,0 -4.0521,-1.4594 -4.0521,-4.37821 l 0,-5.7451 2.24809,0 0,5.77286 c -10e-6,1.60974 0.62909,2.41461 1.88728,2.4146 1.23505,10e-6 1.85258,-0.77711 1.85258,-2.33134 l 0,-5.85612 2.24115,0 0,5.64102 m -4.1423,-6.56384 c -0.47183,1e-5 -0.8627,-0.13645 -1.17261,-0.40937 -0.3053,-0.27753 -0.45795,-0.63834 -0.45795,-1.08241 0,-0.46719 0.15959,-0.83955 0.47876,-1.11711 0.32379,-0.27752 0.71929,-0.41629 1.18649,-0.41631 0.49494,2e-5 0.89506,0.13879 1.20036,0.41631 0.30529,0.27293 0.45794,0.63142 0.45795,1.07547 -1e-5,0.45333 -0.16653,0.82339 -0.49958,1.11017 -0.32843,0.28218 -0.72624,0.42326 -1.19342,0.42325 m 0,-2.17176 c -0.44407,10e-6 -0.66611,0.21742 -0.6661,0.65222 -10e-6,0.43483 0.22203,0.65223 0.6661,0.65222 0.20815,10e-6 0.3793,-0.0624 0.51345,-0.18734 0.13414,-0.1295 0.20121,-0.28446 0.20121,-0.46488 0,-0.18964 -0.0671,-0.3446 -0.20121,-0.46488 -0.12953,-0.12488 -0.30068,-0.18733 -0.51345,-0.18734"
         style="font-variant:normal;font-stretch:normal;fill:#ffffff;font-family:Segoe UI;-inkscape-font-specification:Segoe UI Bold"
         id="path3860"
         inkscape:connector-curvature="0" />
      <path
         d="m 302.96062,740.75512 -2.21339,0 0,-5.95326 c -10e-6,-0.64296 0.0277,-1.353 0.0833,-2.13012 l -0.0555,0 c -0.11565,0.61059 -0.21973,1.05003 -0.31223,1.31832 l -2.33135,6.76506 -1.83177,0 -2.37297,-6.69568 c -0.0648,-0.18039 -0.16884,-0.64296 -0.31224,-1.3877 l -0.0624,0 c 0.0601,0.98065 0.0902,1.84102 0.0902,2.58113 l 0,5.50225 -2.01911,0 0,-9.94985 3.28192,0 2.03299,5.89775 c 0.16189,0.47182 0.27985,0.94596 0.35386,1.4224 l 0.0416,0 c 0.12489,-0.55046 0.25672,-1.02921 0.3955,-1.43628 l 2.03299,-5.88387 3.19866,0 0,9.94985"
         style="font-variant:normal;font-stretch:normal;fill:#ffffff;font-family:Segoe UI;-inkscape-font-specification:Segoe UI Bold"
         id="path3862"
         inkscape:connector-curvature="0" />
      <path
         d="m 312.72312,730.80527 -3.24029,6.4112 0,3.53865 -2.24114,0 0,-3.49702 -3.15703,-6.45283 2.56032,0 1.6028,3.71211 c 0.0278,0.0694 0.10407,0.34 0.22897,0.81181 l 0.0278,0 c 0.0601,-0.33304 0.13183,-0.59439 0.21509,-0.78405 l 1.63056,-3.73987 2.37297,0"
         style="font-variant:normal;font-stretch:normal;fill:#ffffff;font-family:Segoe UI;-inkscape-font-specification:Segoe UI Bold"
         id="path3864"
         inkscape:connector-curvature="0" />
      <path
         d="m 313.3129,740.3735 0,-2.22033 c 0.79562,0.67535 1.67218,1.01303 2.6297,1.01303 0.45794,0 0.81412,-0.0925 1.06853,-0.27754 0.25441,-0.18966 0.38162,-0.43482 0.38162,-0.73549 0,-0.25903 -0.10639,-0.50188 -0.31917,-0.72854 -0.21279,-0.23128 -0.72161,-0.53658 -1.52648,-0.91589 -1.51722,-0.71697 -2.27583,-1.68837 -2.27583,-2.91418 0,-0.89275 0.32842,-1.60742 0.98527,-2.144 0.66147,-0.5412 1.54266,-0.8118 2.64358,-0.81181 0.97139,1e-5 1.77625,0.12721 2.4146,0.38162 l 0,2.07462 c -0.6661,-0.46256 -1.42934,-0.69385 -2.28971,-0.69386 -0.43019,1e-5 -0.77018,0.0925 -1.01996,0.27754 -0.24979,0.18504 -0.37469,0.42789 -0.37468,0.72855 -1e-5,0.29605 0.0971,0.54815 0.29141,0.7563 0.19891,0.20816 0.61522,0.46257 1.24894,0.76324 0.98064,0.4672 1.65599,0.93208 2.02605,1.39464 0.37005,0.46257 0.55507,1.0084 0.55508,1.63749 -10e-6,0.91589 -0.33074,1.63981 -0.99221,2.17176 -0.65685,0.53196 -1.61437,0.79793 -2.87255,0.79793 -1.03153,0 -1.88959,-0.18503 -2.57419,-0.55508"
         style="font-variant:normal;font-stretch:normal;fill:#ffffff;font-family:Segoe UI;-inkscape-font-specification:Segoe UI Bold"
         id="path3866"
         inkscape:connector-curvature="0" />
      <path
         d="m 327.27321,740.75512 -5.9255,0 0,-9.94985 2.24115,0 0,8.13196 3.68435,0 0,1.81789"
         style="font-variant:normal;font-stretch:normal;fill:#ffffff;font-family:Segoe UI;-inkscape-font-specification:Segoe UI Bold"
         id="path3868"
         inkscape:connector-curvature="0" />
      <path
         d="m 332.46323,740.92858 c -1.42471,0 -2.58576,-0.46257 -3.48314,-1.3877 -0.89738,-0.92976 -1.34607,-2.13938 -1.34607,-3.62885 0,-1.57273 0.45563,-2.84479 1.36689,-3.81619 0.91125,-0.97139 2.11856,-1.45708 3.62191,-1.45709 1.42008,1e-5 2.56724,0.46489 3.44151,1.39464 0.87887,0.92977 1.31831,2.15558 1.31832,3.67742 -1e-5,1.56349 -0.45564,2.82398 -1.36689,3.7815 -0.90664,0.95751 -2.09082,1.43627 -3.55253,1.43627 m 0.0971,-8.36092 c -0.78637,10e-6 -1.41084,0.29605 -1.8734,0.88813 -0.46257,0.58747 -0.69386,1.3669 -0.69385,2.33828 -1e-5,0.98528 0.23128,1.7647 0.69385,2.33829 0.46256,0.57358 1.06853,0.86038 1.81789,0.86037 0.77249,10e-6 1.38539,-0.27754 1.83871,-0.83262 0.45331,-0.5597 0.67997,-1.33451 0.67998,-2.32441 -10e-6,-1.03152 -0.21973,-1.83407 -0.65916,-2.40766 -0.43945,-0.57358 -1.04079,-0.86037 -1.80402,-0.86038"
         style="font-variant:normal;font-stretch:normal;fill:#ffffff;font-family:Segoe UI;-inkscape-font-specification:Segoe UI Bold"
         id="path3870"
         inkscape:connector-curvature="0" />
      <path
         d="m 347.31168,730.80527 -3.42763,9.94985 -2.5395,0 -3.386,-9.94985 2.4146,0 2.07462,6.92465 c 0.11101,0.37468 0.17809,0.70542 0.20122,0.99221 l 0.0416,0 c 0.0324,-0.30992 0.10407,-0.6499 0.21509,-1.01996 l 2.06075,-6.8969 2.34522,0"
         style="font-variant:normal;font-stretch:normal;fill:#ffffff;font-family:Segoe UI;-inkscape-font-specification:Segoe UI Bold"
         id="path3872"
         inkscape:connector-curvature="0" />
      <path
         d="m 356.54685,740.75512 -2.44236,0 -0.70773,-2.21339 -3.53865,0 -0.70079,2.21339 -2.42848,0 3.62191,-9.94985 2.65746,0 3.53864,9.94985 m -3.66354,-3.93415 -1.06853,-3.34436 c -0.0786,-0.24978 -0.13415,-0.54814 -0.16653,-0.89507 l -0.0555,0 c -0.0231,0.29142 -0.081,0.58053 -0.17347,0.86731 l -1.08241,3.37212 2.54644,0 m 0.96446,-9.17966 -2.17176,2.24114 -1.58199,0 1.80402,-2.24114 1.94973,0"
         style="font-variant:normal;font-stretch:normal;fill:#ffffff;font-family:Segoe UI;-inkscape-font-specification:Segoe UI Bold"
         id="path3874"
         inkscape:connector-curvature="0" />
      <path
         d="m 263.16123,758.13613 0,-2.22033 c 0.79562,0.67535 1.67219,1.01302 2.62971,1.01302 0.45793,0 0.81411,-0.0925 1.06853,-0.27754 0.25441,-0.18965 0.38161,-0.43481 0.38162,-0.73548 -10e-6,-0.25904 -0.1064,-0.50189 -0.31917,-0.72855 -0.21279,-0.23128 -0.72161,-0.53657 -1.52648,-0.91588 -1.51723,-0.71698 -2.27584,-1.68837 -2.27584,-2.91418 0,-0.89275 0.32843,-1.60742 0.98527,-2.14401 0.66147,-0.54119 1.54267,-0.8118 2.64358,-0.81181 0.97139,10e-6 1.77626,0.12722 2.41461,0.38162 l 0,2.07462 c -0.66611,-0.46256 -1.42934,-0.69384 -2.28971,-0.69385 -0.4302,10e-6 -0.77018,0.0925 -1.01997,0.27754 -0.24979,0.18504 -0.37468,0.42788 -0.37468,0.72855 0,0.29605 0.0971,0.54815 0.29142,0.7563 0.1989,0.20816 0.61521,0.46257 1.24893,0.76323 0.98064,0.4672 1.65599,0.93208 2.02605,1.39465 0.37005,0.46257 0.55508,1.0084 0.55509,1.63749 -10e-6,0.91589 -0.33075,1.63981 -0.99221,2.17176 -0.65686,0.53195 -1.61437,0.79793 -2.87255,0.79793 -1.03153,0 -1.8896,-0.18503 -2.5742,-0.55508 m 5.62021,-12.53098 -1.65137,2.25502 -1.72075,0 -1.63056,-2.25502 1.4224,0 1.07547,1.30444 1.08241,-1.30444 1.4224,0"
         style="font-variant:normal;font-stretch:normal;fill:#ffffff;font-family:Segoe UI;-inkscape-font-specification:Segoe UI Bold"
         id="path3876"
         inkscape:connector-curvature="0" />
      <path
         d="m 279.46677,758.51775 -2.83092,0 -2.9003,-4.32271 c -0.0555,-0.0832 -0.1434,-0.26597 -0.26367,-0.54814 l -0.0347,0 0,4.87085 -2.24114,0 0,-9.94985 2.24114,0 0,4.70432 0.0347,0 c 0.0555,-0.12951 0.14802,-0.31454 0.27755,-0.55508 l 2.74765,-4.14924 2.67133,0 -3.46926,4.74595 3.76762,5.2039"
         style="font-variant:normal;font-stretch:normal;fill:#ffffff;font-family:Segoe UI;-inkscape-font-specification:Segoe UI Bold"
         id="path3878"
         inkscape:connector-curvature="0" />
      <path
         d="m 284.19885,758.69121 c -1.42472,0 -2.58576,-0.46257 -3.48314,-1.38771 -0.89739,-0.92976 -1.34608,-2.13937 -1.34608,-3.62885 0,-1.57272 0.45563,-2.84478 1.36689,-3.81618 0.91126,-0.97139 2.11856,-1.45709 3.62191,-1.4571 1.42008,10e-6 2.56725,0.4649 3.44151,1.39465 0.87887,0.92977 1.31831,2.15557 1.31832,3.67742 -1e-5,1.56348 -0.45564,2.82398 -1.36689,3.78149 -0.90664,0.95752 -2.09082,1.43628 -3.55252,1.43628 m 0.0971,-8.36093 c -0.78637,10e-6 -1.41083,0.29606 -1.8734,0.88814 -0.46257,0.58746 -0.69385,1.36689 -0.69385,2.33828 0,0.98527 0.23128,1.7647 0.69385,2.33828 0.46257,0.57359 1.06853,0.86038 1.8179,0.86038 0.77248,0 1.38538,-0.27754 1.83871,-0.83262 0.45331,-0.55971 0.67996,-1.33451 0.67997,-2.32441 -1e-5,-1.03152 -0.21973,-1.83408 -0.65916,-2.40767 -0.43945,-0.57357 -1.04078,-0.86037 -1.80402,-0.86038"
         style="font-variant:normal;font-stretch:normal;fill:#ffffff;font-family:Segoe UI;-inkscape-font-specification:Segoe UI Bold"
         id="path3880"
         inkscape:connector-curvature="0" />
      <path
         d="m 296.68819,758.51775 -5.9255,0 0,-9.94985 2.24114,0 0,8.13195 3.68436,0 0,1.8179"
         style="font-variant:normal;font-stretch:normal;fill:#ffffff;font-family:Segoe UI;-inkscape-font-specification:Segoe UI Bold"
         id="path3882"
         inkscape:connector-curvature="0" />
      <path
         d="m 307.08904,758.51775 -2.44236,0 -0.70773,-2.21339 -3.53865,0 -0.70079,2.21339 -2.42848,0 3.62191,-9.94985 2.65745,0 3.53865,9.94985 m -3.66354,-3.93415 -1.06853,-3.34437 c -0.0786,-0.24978 -0.13415,-0.54813 -0.16653,-0.89507 l -0.0555,0 c -0.0231,0.29143 -0.0809,0.58053 -0.17346,0.86732 l -1.08241,3.37212 2.54644,0"
         style="font-variant:normal;font-stretch:normal;fill:#ffffff;font-family:Segoe UI;-inkscape-font-specification:Segoe UI Bold"
         id="path3884"
         inkscape:connector-curvature="0" />
      <path
         d="m 269.5308,776.28037 -5.96713,0 0,-9.94984 5.73816,0 0,1.82483 -3.49702,0 0,2.21339 3.25417,0 0,1.81789 -3.25417,0 0,2.27584 3.72599,0 0,1.81789"
         style="font-variant:normal;font-stretch:normal;fill:#ffffff;font-family:Segoe UI;-inkscape-font-specification:Segoe UI Bold"
         id="path3886"
         inkscape:connector-curvature="0" />
      <path
         d="m 277.06604,776.28037 -5.9255,0 0,-9.94984 2.24114,0 0,8.13195 3.68436,0 0,1.81789"
         style="font-variant:normal;font-stretch:normal;fill:#ffffff;font-family:Segoe UI;-inkscape-font-specification:Segoe UI Bold"
         id="path3888"
         inkscape:connector-curvature="0" />
      <path
         d="m 284.37925,776.28037 -5.96714,0 0,-9.94984 5.73817,0 0,1.82483 -3.49702,0 0,2.21339 3.25417,0 0,1.81789 -3.25417,0 0,2.27584 3.72599,0 0,1.81789"
         style="font-variant:normal;font-stretch:normal;fill:#ffffff;font-family:Segoe UI;-inkscape-font-specification:Segoe UI Bold"
         id="path3890"
         inkscape:connector-curvature="0" />
      <path
         d="m 294.25971,776.28037 -2.83092,0 -2.9003,-4.3227 c -0.0555,-0.0833 -0.1434,-0.26597 -0.26367,-0.54814 l -0.0347,0 0,4.87084 -2.24115,0 0,-9.94984 2.24115,0 0,4.70432 0.0347,0 c 0.0555,-0.12952 0.14802,-0.31454 0.27754,-0.55509 l 2.74766,-4.14923 2.67133,0 -3.46926,4.74595 3.76762,5.20389"
         style="font-variant:normal;font-stretch:normal;fill:#ffffff;font-family:Segoe UI;-inkscape-font-specification:Segoe UI Bold"
         id="path3892"
         inkscape:connector-curvature="0" />
      <path
         d="m 302.27371,768.15536 -2.83786,0 0,8.12501 -2.24808,0 0,-8.12501 -2.82398,0 0,-1.82483 7.90992,0 0,1.82483"
         style="font-variant:normal;font-stretch:normal;fill:#ffffff;font-family:Segoe UI;-inkscape-font-specification:Segoe UI Bold"
         id="path3894"
         inkscape:connector-curvature="0" />
      <path
         d="m 311.2591,776.28037 -2.5742,0 -1.00608,-2.56031 c -0.32843,-0.83262 -0.77481,-1.24894 -1.33914,-1.24894 l -0.4857,0 0,3.80925 -2.24114,0 0,-9.94984 3.55253,0 c 2.4146,1e-5 3.6219,0.90201 3.62191,2.70602 -1e-5,0.68923 -0.19892,1.27207 -0.59672,1.74851 -0.39319,0.47645 -0.94364,0.80719 -1.65137,0.99221 l 0,0.0277 c 0.58283,0.18503 1.05697,0.69617 1.4224,1.53342 l 1.29751,2.94193 m -5.40512,-8.27072 0,2.76847 0.9714,0 c 0.48106,1e-5 0.86731,-0.13876 1.15873,-0.41631 0.29604,-0.28216 0.44406,-0.6314 0.44407,-1.04772 -10e-6,-0.86962 -0.5204,-1.30443 -1.56117,-1.30444 l -1.01303,0"
         style="font-variant:normal;font-stretch:normal;fill:#ffffff;font-family:Segoe UI;-inkscape-font-specification:Segoe UI Bold"
         id="path3896"
         inkscape:connector-curvature="0" />
      <path
         d="m 316.72665,776.45384 c -1.42471,-10e-6 -2.58576,-0.46257 -3.48314,-1.38771 -0.89738,-0.92976 -1.34607,-2.13938 -1.34607,-3.62885 0,-1.57273 0.45563,-2.84479 1.36689,-3.81619 0.91125,-0.97138 2.11856,-1.45708 3.62191,-1.45709 1.42008,10e-6 2.56725,0.46489 3.44151,1.39464 0.87887,0.92978 1.31831,2.15558 1.31832,3.67742 -1e-5,1.56349 -0.45564,2.82399 -1.36689,3.7815 -0.90664,0.95752 -2.09082,1.43627 -3.55253,1.43628 m 0.0971,-8.36093 c -0.78637,1e-5 -1.41084,0.29605 -1.8734,0.88813 -0.46257,0.58747 -0.69386,1.3669 -0.69385,2.33829 -1e-5,0.98527 0.23128,1.7647 0.69385,2.33828 0.46256,0.57359 1.06853,0.86038 1.81789,0.86038 0.77249,0 1.38539,-0.27754 1.83871,-0.83263 0.45331,-0.5597 0.67997,-1.3345 0.67998,-2.3244 -10e-6,-1.03152 -0.21973,-1.83408 -0.65916,-2.40767 -0.43945,-0.57358 -1.04079,-0.86037 -1.80402,-0.86038"
         style="font-variant:normal;font-stretch:normal;fill:#ffffff;font-family:Segoe UI;-inkscape-font-specification:Segoe UI Bold"
         id="path3898"
         inkscape:connector-curvature="0" />
      <path
         d="m 329.72251,768.15536 -2.83785,0 0,8.12501 -2.24809,0 0,-8.12501 -2.82398,0 0,-1.82483 7.90992,0 0,1.82483"
         style="font-variant:normal;font-stretch:normal;fill:#ffffff;font-family:Segoe UI;-inkscape-font-specification:Segoe UI Bold"
         id="path3900"
         inkscape:connector-curvature="0" />
      <path
         d="m 337.02878,776.28037 -5.96713,0 0,-9.94984 5.73816,0 0,1.82483 -3.49702,0 0,2.21339 3.25417,0 0,1.81789 -3.25417,0 0,2.27584 3.72599,0 0,1.81789"
         style="font-variant:normal;font-stretch:normal;fill:#ffffff;font-family:Segoe UI;-inkscape-font-specification:Segoe UI Bold"
         id="path3902"
         inkscape:connector-curvature="0" />
      <path
         d="m 345.77133,775.92651 c -0.72624,0.35155 -1.67451,0.52732 -2.8448,0.52733 -1.52648,-10e-6 -2.72684,-0.4487 -3.60109,-1.34608 -0.87426,-0.89738 -1.31139,-2.09312 -1.31139,-3.58722 0,-1.59123 0.49033,-2.88179 1.47097,-3.87169 0.98527,-0.98989 2.26196,-1.48484 3.83007,-1.48485 0.97138,10e-6 1.79013,0.12259 2.45624,0.36774 l 0,2.15788 c -0.66611,-0.3978 -1.42472,-0.5967 -2.27584,-0.59671 -0.93439,1e-5 -1.68838,0.29374 -2.26196,0.88119 -0.57359,0.58747 -0.86038,1.38309 -0.86038,2.38686 0,0.96214 0.2706,1.73001 0.81181,2.30359 0.5412,0.56896 1.26975,0.85344 2.18564,0.85344 0.87424,0 1.67449,-0.21278 2.40073,-0.63835 l 0,2.04687"
         style="font-variant:normal;font-stretch:normal;fill:#ffffff;font-family:Segoe UI;-inkscape-font-specification:Segoe UI Bold"
         id="path3904"
         inkscape:connector-curvature="0" />
      <path
         d="m 356.13054,776.28037 -2.24808,0 0,-4.0521 -4.12149,0 0,4.0521 -2.24114,0 0,-9.94984 2.24114,0 0,3.96883 4.12149,0 0,-3.96883 2.24808,0 0,9.94984"
         style="font-variant:normal;font-stretch:normal;fill:#ffffff;font-family:Segoe UI;-inkscape-font-specification:Segoe UI Bold"
         id="path3906"
         inkscape:connector-curvature="0" />
      <path
         d="m 367.35014,776.28037 -2.26196,0 -4.10067,-6.25161 c -0.24054,-0.36542 -0.40706,-0.64065 -0.49958,-0.82568 l -0.0278,0 c 0.037,0.35155 0.0555,0.88813 0.0555,1.60973 l 0,5.46756 -2.11625,0 0,-9.94984 2.41461,0 3.94802,6.05733 c 0.18039,0.27292 0.34692,0.54352 0.49957,0.81181 l 0.0278,0 c -0.037,-0.23128 -0.0555,-0.68691 -0.0555,-1.36689 l 0,-5.50225 2.11625,0 0,9.94984"
         style="font-variant:normal;font-stretch:normal;fill:#ffffff;font-family:Segoe UI;-inkscape-font-specification:Segoe UI Bold"
         id="path3908"
         inkscape:connector-curvature="0" />
      <path
         d="m 371.881,776.28037 -2.24114,0 0,-9.94984 2.24114,0 0,9.94984"
         style="font-variant:normal;font-stretch:normal;fill:#ffffff;font-family:Segoe UI;-inkscape-font-specification:Segoe UI Bold"
         id="path3910"
         inkscape:connector-curvature="0" />
      <path
         d="m 381.26882,775.92651 c -0.72624,0.35155 -1.6745,0.52732 -2.84479,0.52733 -1.52648,-10e-6 -2.72685,-0.4487 -3.6011,-1.34608 -0.87425,-0.89738 -1.31138,-2.09312 -1.31138,-3.58722 0,-1.59123 0.49032,-2.88179 1.47097,-3.87169 0.98527,-0.98989 2.26195,-1.48484 3.83007,-1.48485 0.97138,10e-6 1.79013,0.12259 2.45623,0.36774 l 0,2.15788 c -0.6661,-0.3978 -1.42471,-0.5967 -2.27583,-0.59671 -0.9344,1e-5 -1.68838,0.29374 -2.26196,0.88119 -0.57359,0.58747 -0.86038,1.38309 -0.86038,2.38686 0,0.96214 0.2706,1.73001 0.81181,2.30359 0.5412,0.56896 1.26974,0.85344 2.18563,0.85344 0.87425,0 1.67449,-0.21278 2.40073,-0.63835 l 0,2.04687"
         style="font-variant:normal;font-stretch:normal;fill:#ffffff;font-family:Segoe UI;-inkscape-font-specification:Segoe UI Bold"
         id="path3912"
         inkscape:connector-curvature="0" />
      <path
         d="m 391.28805,776.28037 -2.83092,0 -2.9003,-4.3227 c -0.0555,-0.0833 -0.1434,-0.26597 -0.26367,-0.54814 l -0.0347,0 0,4.87084 -2.24114,0 0,-9.94984 2.24114,0 0,4.70432 0.0347,0 c 0.0555,-0.12952 0.14802,-0.31454 0.27755,-0.55509 l 2.74765,-4.14923 2.67133,0 -3.46926,4.74595 3.76762,5.20389"
         style="font-variant:normal;font-stretch:normal;fill:#ffffff;font-family:Segoe UI;-inkscape-font-specification:Segoe UI Bold"
         id="path3914"
         inkscape:connector-curvature="0" />
      <path
         d="m 400.98118,776.28037 -2.44236,0 -0.70773,-2.21339 -3.53865,0 -0.70079,2.21339 -2.42848,0 3.62191,-9.94984 2.65745,0 3.53865,9.94984 m -3.66354,-3.93414 -1.06853,-3.34437 c -0.0786,-0.24978 -0.13415,-0.54814 -0.16653,-0.89507 l -0.0555,0 c -0.0231,0.29142 -0.0809,0.58053 -0.17346,0.86731 l -1.08241,3.37213 2.54644,0 m 0.96445,-9.17967 -2.17176,2.24114 -1.58198,0 1.80402,-2.24114 1.94972,0"
         style="font-variant:normal;font-stretch:normal;fill:#ffffff;font-family:Segoe UI;-inkscape-font-specification:Segoe UI Bold"
         id="path3916"
         inkscape:connector-curvature="0" />
    </g>
    <path
       inkscape:connector-curvature="0"
       style="fill:#ffffff;fill-opacity:1;stroke:none"
       d="m 184.50548,1587.8775 c -13.78606,0 -24.96203,11.176 -24.96203,24.962 0,13.7861 11.17597,24.9618 24.96203,24.9618 13.78605,0 24.96172,-11.1757 24.96172,-24.9618 0,-13.786 -11.17567,-24.962 -24.96172,-24.962 z m 0,2.2931 c 12.51961,0 22.66864,10.1493 22.66864,22.6689 0,12.5197 -10.14903,22.6687 -22.66864,22.6687 -12.51962,0 -22.66895,-10.149 -22.66895,-22.6687 0,-12.5196 10.14933,-22.6689 22.66895,-22.6689 z"
       id="path2995" />
    <path
       inkscape:connector-curvature="0"
       style="fill:#ffffff;fill-opacity:1;stroke:none"
       d="m 181.78968,1588.7401 0,8.5783 -13.80738,0 0,1.1948 0,5.4382 1.19482,0 31.85033,0 0,-1.1945 0,-4.2923 0,-1.1462 -13.84057,0 0,-8.5783 -1.19482,0 0,9.7791 1.19482,0 0,-0.01 12.64575,0 0,4.2437 -30.65551,0 0,-4.2437 12.61256,0 1.19482,0 0,-9.7731 -1.19482,0 z"
       id="rect3011" />
    <path
       inkscape:connector-curvature="0"
       d="m 193.21652,1618.9958 2.34264,-14.6253 9.27089,0 -0.62473,3.4671 -5.64935,-0.2234 -0.50996,3.6834 5.38445,0.7447 -0.60277,3.2483 -5.21947,-0.8052 -0.55135,4.1117 4.53248,2.8667 -0.58372,3.0124 z m -27.74174,0.62 1.77149,-3.1812 c 0,0 3.87651,2.623 4.70827,1.3624 0.83176,-1.2607 -4.96238,-3.4007 -6.49725,-4.5248 -1.40281,-1.1697 -1.98117,-2.8299 -1.57503,-4.3964 0.61357,-2.264 2.15997,-3.6703 5.10335,-3.7646 2.94337,-0.094 5.05901,2.6318 5.05901,2.6318 l -2.06377,3.1866 c 0,0 -3.63562,-3.5787 -4.49643,-1.7116 -0.86081,1.867 10.79053,4.255 7.93911,9.3212 -2.85143,5.0662 -9.94875,1.0766 -9.94875,1.0766 z m 12.19879,-1.4246 -3.02179,-13.2315 c 0,0 9.3507,-2.5028 10.69472,2.6626 1.34401,5.1654 -4.82109,6.523 -4.82109,6.523 l 0.7206,3.1528 z m 3.81499,-9.5055 c -0.44,-1.1678 -2.35394,-0.6962 -2.35394,-0.6962 l 0.58372,2.5792 c 0,0 2.21022,-0.7152 1.77022,-1.883 z m 8.4747,9.2859 c -2.16706,0.1172 -4.54162,-3.0138 -4.54162,-3.0138 l 2.24636,-1.7642 c 0,0 1.65775,2.6156 2.28718,1.7876 0.62944,-0.8281 -4.42141,-4.7883 -3.68613,-7.9387 0.48347,-1.144 1.43349,-2.3972 2.76694,-2.4439 0.11092,0 0.35118,0.01 0.35118,0.01 l -0.18255,-0.2369 1.69821,0.01 0.30027,0.3936 0.2683,-0.3967 1.89118,0.022 -1.2513,1.3615 c 0.86112,0.6491 1.32514,1.242 1.70107,1.8874 l -2.05914,1.6908 c 0,0 -1.45848,-2.4069 -2.34089,-1.5948 -0.88241,0.812 4.05915,5.0964 3.81319,7.2815 -0.24595,2.1851 -1.09518,2.8298 -3.26225,2.9471 z"
       style="fill:#ffffff;fill-opacity:1;fill-rule:nonzero;stroke:none"
       id="path3070"
       sodipodi:nodetypes="ccccccccccccccczcczcczzccczccczcczzcczccccccccccczzz" />
    <g
       inkscape:transform-center-x="-106.87725"
       inkscape:transform-center-y="-899.75868"
       style="font-size:380px;font-style:normal;font-variant:normal;font-weight:normal;font-stretch:normal;line-height:125%;letter-spacing:0px;word-spacing:0px;fill:#ffffff;fill-opacity:1;stroke:none;stroke-width:7;stroke-linecap:round;stroke-linejoin:round;stroke-miterlimit:4;stroke-dasharray:none;font-family:Source Sans Pro;-inkscape-font-specification:Source Sans Pro"
       id="text3150"
       transform="matrix(0.00965509,0,0,0.00965509,182.09511,1608.7381)">
      <path
         inkscape:connector-curvature="0"
         d="m -1035.3692,2246.8381 36.2872,-63.9178 -96.0941,-54.5543 22.4635,-39.5682 c 34.0655,-60.0044 33.3798,-127.6638 -33.1469,-165.4321 -68.7007,-39.0026 -119.4523,-2.2699 -154.2584,59.0389 l -58.7507,103.486 283.4994,160.9475 m -110.6803,-147.3538 -85.6585,-48.6298 20.2418,-35.6548 c 19.2545,-33.9156 40.4927,-46.0065 70.0601,-29.2206 29.5673,16.7859 35.5935,42.6304 15.5985,77.8504 l -20.2419,35.6548"
         style="font-size:500px;font-weight:bold;letter-spacing:-41.23999786000000256px;fill:#ffffff;stroke:none;stroke-width:7;stroke-linecap:round;stroke-linejoin:round;stroke-miterlimit:4;stroke-dasharray:none;-inkscape-font-specification:Source Sans Pro Bold"
         id="path3983" />
      <path
         inkscape:connector-curvature="0"
         d="m -1058.8895,1791.2218 24.6587,-28.9127 c 24.9832,-29.2931 46.97997,-38.1332 71.3275,-17.3679 24.34754,20.7652 23.27453,47.4505 -1.70866,76.7436 l -24.65876,28.9127 -69.61878,-59.3757 m 323.90403,32.445 -147.31207,-28.3797 c 10.91865,-36.6883 2.6374,-73.98 -33.8839,-105.1279 -58.96668,-50.2909 -113.89116,-22.8762 -158.66616,29.6232 l -76.2475,89.4012 248.04072,211.5462 47.69523,-55.9233 -89.40119,-76.2475 26.28105,-30.8149 129.95835,28.6937 53.53547,-62.771"
         style="font-size:500px;font-weight:bold;letter-spacing:-41.23999786000000256px;fill:#ffffff;stroke:none;stroke-width:7;stroke-linecap:round;stroke-linejoin:round;stroke-miterlimit:4;stroke-dasharray:none;-inkscape-font-specification:Source Sans Pro Bold"
         id="path3985" />
      <path
         inkscape:connector-curvature="0"
         d="m -761.85545,1676.1946 -12.68496,-28.3389 c -13.48313,-30.9104 -30.81929,-65.7775 -46.33894,-97.6112 l 1.55329,-1.2599 c 28.01933,21.0515 59.26179,45.2829 86.72454,64.8545 l 24.72296,18.5748 -53.97689,43.7807 m 166.20104,39.0187 60.57839,-49.1351 -284.57746,-188.933 -68.73317,55.7495 126.14167,317.4402 58.24845,-47.2453 -33.28722,-72.7888 77.27628,-62.6788 64.35306,47.5913"
         style="font-size:500px;font-weight:bold;letter-spacing:-41.23999786000000256px;fill:#ffffff;stroke:none;stroke-width:7;stroke-linecap:round;stroke-linejoin:round;stroke-miterlimit:4;stroke-dasharray:none;-inkscape-font-specification:Source Sans Pro Bold"
         id="path3987" />
      <path
         inkscape:connector-curvature="0"
         d="m -538.53666,1670.3249 64.9456,-34.414 -63.67747,-120.1714 99.40653,-52.6744 63.67748,120.1714 65.38741,-34.648 -152.63866,-288.0581 -65.38741,34.6481 58.7612,110.8935 -99.40653,52.6744 -58.7612,-110.8935 -64.94561,34.4139 152.63866,288.0581"
         style="font-size:500px;font-weight:bold;letter-spacing:-41.23999786000000256px;fill:#ffffff;stroke:none;stroke-width:7;stroke-linecap:round;stroke-linejoin:round;stroke-miterlimit:4;stroke-dasharray:none;-inkscape-font-specification:Source Sans Pro Bold"
         id="path3989" />
      <path
         inkscape:connector-curvature="0"
         d="m -247.69379,1387.982 -1.01337,-31.0318 c -0.77871,-33.7141 -3.62592,-72.549 -5.94006,-107.8886 l 1.91462,-0.5782 c 17.96522,30.0915 37.70993,64.3465 55.72021,92.8575 l 15.85167,26.5514 -66.53307,20.0897 m 139.06227,99.03 74.670213,-22.5468 -191.879773,-282.5989 -84.72197,25.5819 -3.41157,341.5675 71.79828,-21.6796 -3.25607,-79.9728 95.2524,-28.7616 41.54849,68.4103"
         style="font-size:500px;font-weight:bold;letter-spacing:-41.23999786000000256px;fill:#ffffff;stroke:none;stroke-width:7;stroke-linecap:round;stroke-linejoin:round;stroke-miterlimit:4;stroke-dasharray:none;-inkscape-font-specification:Source Sans Pro Bold"
         id="path3991" />
      <path
         inkscape:connector-curvature="0"
         d="m 130.14542,1446.2919 223.48063,2.942 0.81612,-61.9947 -63.99445,-0.8424 c -14.99869,-0.1975 -37.02314,1.5128 -53.04806,3.302 52.2063,-53.3174 102.95233,-109.6544 103.65656,-163.1497 0.80296,-60.9947 -41.16689,-101.5507 -103.66141,-102.3734 -45.49601,-0.5989 -75.21731,16.0113 -107.15552,49.0937 l 39.47659,40.0232 c 16.22237,-16.7879 33.92493,-32.0563 56.92291,-31.7535 27.49759,0.362 44.77233,17.5909 44.36426,48.5882 -0.59234,44.996 -58.30489,98.7411 -140.30478,174.1682 l -0.55285,41.9964"
         style="font-size:500px;font-weight:bold;letter-spacing:-41.23999786000000256px;fill:#ffffff;stroke:none;stroke-width:7;stroke-linecap:round;stroke-linejoin:round;stroke-miterlimit:4;stroke-dasharray:none;-inkscape-font-specification:Source Sans Pro Bold"
         id="path3993" />
      <path
         inkscape:connector-curvature="0"
         d="m 436.89133,1361.1106 120.90328,22.6141 9.56043,-51.1136 -120.90328,-22.6141 -9.56043,51.1136"
         style="font-size:500px;font-weight:bold;letter-spacing:-41.23999786000000256px;fill:#ffffff;stroke:none;stroke-width:7;stroke-linecap:round;stroke-linejoin:round;stroke-miterlimit:4;stroke-dasharray:none;-inkscape-font-specification:Source Sans Pro Bold"
         id="path3995" />
      <path
         inkscape:connector-curvature="0"
         d="m 608.83323,1441.9014 c 7.54708,44.8279 31.8306,74.4854 78.31269,91.5048 67.61031,24.7555 115.83606,-12.4304 137.49713,-71.5894 l 74.78233,-204.2397 -69.01893,-25.2713 -72.71937,198.6055 c -14.95645,40.8479 -32.74462,48.7113 -57.62897,39.5999 -15.49403,-5.6731 -27.84743,-21.378 -31.55163,-46.1627 l -59.67325,17.5529"
         style="font-size:500px;font-weight:bold;letter-spacing:-41.23999786000000256px;fill:#ffffff;stroke:none;stroke-width:7;stroke-linecap:round;stroke-linejoin:round;stroke-miterlimit:4;stroke-dasharray:none;-inkscape-font-specification:Source Sans Pro Bold"
         id="path3997" />
      <path
         inkscape:connector-curvature="0"
         d="m 819.4709,1577.6241 182.2492,102.3046 30.3487,-54.0643 -118.15675,-66.3267 36.71218,-65.4004 96.79267,54.334 30.104,-53.6283 -96.79268,-54.3341 32.06198,-57.1163 113.7967,63.8792 30.3488,-54.0644 -177.8892,-99.8571 -159.5756,284.2738"
         style="font-size:500px;font-weight:bold;letter-spacing:-41.23999786000000256px;fill:#ffffff;stroke:none;stroke-width:7;stroke-linecap:round;stroke-linejoin:round;stroke-miterlimit:4;stroke-dasharray:none;-inkscape-font-specification:Source Sans Pro Bold"
         id="path3999" />
      <path
         inkscape:connector-curvature="0"
         d="m 1112.0623,1559.7573 c -69.4307,84.6736 -52.5337,172.8879 12.808,226.4668 31.3176,25.6798 69.6177,35.7473 110.4693,28.5091 l -3.1015,-60.0906 c -23.4686,3.3872 -45.8393,-0.085 -66.3311,-16.8874 -37.1172,-30.4354 -36.36,-80.2494 6.1227,-132.0588 41.5316,-50.6494 94.0287,-58.6843 129.2127,-29.8342 17.3987,14.2666 23.7474,31.7579 26.9954,53.8192 l 60.1679,-9.5042 c -2.7455,-31.3482 -16.3555,-68.3722 -47.6731,-94.052 -64.9551,-53.2619 -160.1908,-49.8815 -228.6703,33.6321 m 294.614,-81.7224 -39.8309,6.782 -1.5466,-1.2681 -1.1526,-40.3878 -43.6901,-35.825 -0.927,76.8319 55.6758,45.6531 75.1615,-15.9611 -43.6901,-35.825"
         style="font-size:500px;font-weight:bold;letter-spacing:-41.23999786000000256px;fill:#ffffff;stroke:none;stroke-width:7;stroke-linecap:round;stroke-linejoin:round;stroke-miterlimit:4;stroke-dasharray:none;-inkscape-font-specification:Source Sans Pro Bold"
         id="path4001" />
      <path
         inkscape:connector-curvature="0"
         d="m 1214.6261,1854.1587 44.4711,54.0585 89.1965,-73.3774 c 29.7322,-24.4591 59.5139,-56.7284 85.4095,-81.916 l 1.2706,1.5445 -34.5011,69.8189 -71.4923,168.879 47.9653,58.3059 251.7581,-207.1083 -44.4712,-54.0585 -88.8103,73.0597 c -29.7321,24.4591 -61.4445,58.3166 -86.1817,82.5513 l -1.2706,-1.5446 35.2733,-70.4541 71.1062,-168.5614 -47.9653,-58.3059 -251.7581,207.1084"
         style="font-size:500px;font-weight:bold;letter-spacing:-41.23999786000000256px;fill:#ffffff;stroke:none;stroke-width:7;stroke-linecap:round;stroke-linejoin:round;stroke-miterlimit:4;stroke-dasharray:none;-inkscape-font-specification:Source Sans Pro Bold"
         id="path4003" />
      <path
         inkscape:connector-curvature="0"
         d="m 1844.1568,2048.8627 -37.1132,-68.6048 -72.0432,-7.0731 28.0728,51.8934 81.0836,23.7845 m -297.7113,29.7358 30.1929,-7.238 c 32.8676,-7.5478 70.3348,-18.1525 104.4857,-27.5315 l 0.9516,1.7591 c -25.8602,23.6536 -55.4406,49.8883 -79.7436,73.268 l -22.8178,20.871 -33.0688,-61.1286 m -69.0169,156.1471 37.1132,68.6047 238.2001,-244.8279 -42.1092,-77.84 -335.2653,65.4001 35.6857,65.9661 77.6812,-19.2843 47.3431,87.5151 -58.6488,54.4662"
         style="font-size:500px;font-weight:bold;letter-spacing:-41.23999786000000256px;fill:#ffffff;stroke:none;stroke-width:7;stroke-linecap:round;stroke-linejoin:round;stroke-miterlimit:4;stroke-dasharray:none;-inkscape-font-specification:Source Sans Pro Bold"
         id="path4005" />
    </g>
    <g
       id="g3137"
       transform="matrix(0.00994915,0,0,0.00965509,181.93611,1608.7381)"
       style="fill:#ffffff;fill-opacity:1;stroke:none">
      <path
         sodipodi:nodetypes="sccsccs"
         inkscape:connector-curvature="0"
         id="path3039"
         transform="translate(-2308.5715,-2145.9236)"
         d="m 2559.9375,3064.0625 c -824.6312,0 -1523.3239,529.0745 -1762.75,1260.1563 l 91.25,62.6874 c 215.9472,-705.0913 882.5808,-1218.7812 1671.5,-1218.7812 792.2595,0 1461.2175,518.0369 1674.2481,1227.7357 l 93.4751,-56.2679 C 4093.0406,3600.5636 3390.3396,3064.0625 2559.9375,3064.0625 z"
         style="fill:#ffffff;fill-opacity:1;stroke:none" />
      <path
         sodipodi:nodetypes="sccsccs"
         inkscape:connector-curvature="0"
         id="path3054"
         transform="translate(-2308.5715,-2145.9236)"
         d="m 2559.9375,3694.7812 c -614.3238,0 -1121.5749,449.8343 -1198.3297,1032.1248 l 109.3035,67.0831 c 40.2879,-555.6898 512.4539,-994.2391 1089.0262,-994.2391 564.2031,0 1028.4589,419.9348 1085.8711,958.6406 l 112.9897,-27.3997 C 3683.8829,4146.7207 3175.6971,3694.7812 2559.9375,3694.7812 z"
         style="fill:#ffffff;fill-opacity:1;stroke:none" />
    </g>
  </g>
</svg>
